# xmcd
#
# Track frame offsets:
#	150
#	12509
#	24761
#	34935
#	50579
#	65790
#	78955
#	94093
#	105671
#	121299
#	136574
#	156159
#	171446
#	188385
#	199233
#	211250
#	233425
#	245785
#	265228
#	280507
#
# Disc length: 3981 seconds
#
# Revision: 0
# Processed by: cddbd v1.5.1PL2 Copyright (c) Steve Scherf et al.
# Submitted via: dBpowerAMP V4.0
#
DISCID=0a0f8b14
DTITLE=Various Artist - CMT 40 Greatest Done Me Wrong Songs 
DYEAR=1900
DGENRE=Country
TTITLE0=Your Cheatin' Heart - Hank Williams
TTITLE1=Jolene - Dolly Parton
TTITLE2=Fist City - Loretta Lynn
TTITLE3=How Do You Like Me Now? - Toby Keith
TTITLE4=Harper Valley PTA - Jeannie C. Riley
TTITLE5=Ruby Don't Take Your Love To Town - Kenny Rogers
TTITLE6=Seven Year Ache - Rosanne Cash
TTITLE7=Here's A Quarter ( Call Someone Who Cares) - Travis Tritt
TTITLE8=Independence Day - Martina McBride
TTITLE9=Another Somebody Done Somebody Wrong Song - B.J. Thomas
TTITLE10=Goodbye Earl - Dixie Chicks
TTITLE11=Whoever's In New England - Reba McEntire
TTITLE12=The Thunder Rolls - Garth Brooks
TTITLE13=He'll Have To Go - Jim Reeves
TTITLE14=You Win Again - Hank Williams
TTITLE15=You'll Think Of Me - Keith Urban
TTITLE16=Lying Here With Linda On My MInd - Conway Twitty
TTITLE17=The Night the Lights Went Out In Georgia - Reba McEntire
TTITLE18=The Cold Hard Facts Of Life - Porter Wagoner
TTITLE19=Who's Cheatin' Who - Alan Jackson
EXTD=
EXTT0=
EXTT1=
EXTT2=
EXTT3=
EXTT4=
EXTT5=
EXTT6=
EXTT7=
EXTT8=
EXTT9=
EXTT10=
EXTT11=
EXTT12=
EXTT13=
EXTT14=
EXTT15=
EXTT16=
EXTT17=
EXTT18=
EXTT19=
PLAYORDER=
